<?xml version="1.0" encoding="UTF-8"?>
<svg id="Layer_1" data-name="Layer 1" xmlns="http://www.w3.org/2000/svg" viewBox="0 0 94.54 95.4">
  <defs>
    <style>
      .cls-1 {
        fill: #fff;
      }

      .cls-2 {
        fill: #24292f;
        fill-rule: evenodd;
      }
    </style>
  </defs>
  <ellipse class="cls-1" cx="47.27" cy="49.14" rx="45.94" ry="46.25"/>
  <path class="cls-2" d="M47.3,0C21.15,0,0,21.3,0,47.66c0,21.07,13.55,38.9,32.34,45.21,2.35.47,3.21-1.03,3.21-2.29,0-1.1-.08-4.89-.08-8.84-13.16,2.84-15.9-5.68-15.9-5.68-2.11-5.52-5.25-6.94-5.25-6.94-4.31-2.91.31-2.91.31-2.91,4.77.32,7.28,4.89,7.28,4.89,4.23,7.26,11.04,5.21,13.79,3.94.39-3.08,1.65-5.21,2.97-6.39-10.5-1.1-21.54-5.21-21.54-23.51,0-5.21,1.88-9.47,4.85-12.78-.47-1.18-2.11-6.07.47-12.63,0,0,3.99-1.26,13,4.89,3.85-1.05,7.83-1.58,11.82-1.58s8.07.55,11.82,1.58c9.01-6.16,13-4.89,13-4.89,2.59,6.55.94,11.45.47,12.63,3.05,3.31,4.85,7.57,4.85,12.78,0,18.31-11.04,22.33-21.61,23.51,1.72,1.5,3.21,4.34,3.21,8.84,0,6.39-.08,11.52-.08,13.1,0,1.26.86,2.76,3.21,2.29,18.8-6.31,32.34-24.14,32.34-45.21C94.62,21.3,73.39,0,47.31,0h0Z"/>
</svg>