<svg width="339" height="110" viewBox="0 0 339 110" fill="none" xmlns="http://www.w3.org/2000/svg">
<path d="M92.0833 0C92.7083 0 93.5052 0.244792 94.4792 0.729167C95.4635 1.21875 95.9583 2.47917 95.9583 4.52083V14.9167C95.9583 17.1406 95.4635 18.5 94.4792 19C93.5052 19.4896 92.7083 19.7292 92.0833 19.7292H57.8333V105.292C57.8333 107.333 57.3646 108.599 56.4375 109.083C55.5052 109.573 54.7292 109.813 54.1042 109.813H41.8333C41.3021 109.813 40.5469 109.573 39.5625 109.083C38.5885 108.599 38.1042 107.333 38.1042 105.292V19.7292H3.85417C3.22917 19.7292 2.42708 19.4896 1.45833 19C0.484375 18.5 0 17.1406 0 14.9167V4.52083C0 2.47917 0.484375 1.21875 1.45833 0.729167C2.42708 0.244792 3.22917 0 3.85417 0H92.0833Z" fill="white"/>
<path d="M214.845 31.8542V32.6458C214.845 32.5625 214.845 32.5 214.845 32.4583C214.845 32.4063 214.845 32.3333 214.845 32.25C214.845 32.1667 214.845 32.1042 214.845 32.0625C214.845 32.0104 214.845 31.9375 214.845 31.8542ZM217.366 104.083C217.892 104.792 218.075 105.854 217.908 107.271C217.627 109.052 216.606 109.938 214.845 109.938H200.179C199.023 109.938 198.095 109.677 197.387 109.146C197.106 108.969 196.856 108.703 196.637 108.354C196.413 107.995 196.168 107.635 195.908 107.271L171.783 64.5H143.679V105.292C143.679 107.333 143.205 108.62 142.262 109.146C141.33 109.677 140.554 109.938 139.929 109.938H127.804C127.179 109.938 126.377 109.677 125.408 109.146C124.434 108.62 123.95 107.333 123.95 105.292V49.3125C123.95 47.2708 124.434 46.0104 125.408 45.5208C126.377 45.0208 127.179 44.7708 127.804 44.7708H185.783C189.158 44.7708 191.512 43.8021 192.845 41.8542C194.262 39.8958 194.97 36.6979 194.97 32.25C194.97 27.8073 194.262 24.6042 192.845 22.6458C191.512 20.7031 189.158 19.7292 185.783 19.7292H127.804C127.179 19.7292 126.377 19.4896 125.408 19C124.434 18.5 123.95 17.2292 123.95 15.1875V4.66667C123.95 2.53125 124.434 1.21875 125.408 0.729167C126.377 0.244792 127.179 0 127.804 0H189.241C198.392 0 204.97 2.84375 208.97 8.52083C212.788 14.0365 214.746 21.9479 214.845 32.25C214.746 42.5573 212.788 50.4688 208.97 55.9792C205.595 60.5938 200.621 63.3021 194.054 64.1042L217.366 104.083Z" fill="white"/>
<path d="M338.242 33.9792C338.242 42.4271 336.023 48.8698 331.596 53.3125C336.471 57.7604 338.908 64.375 338.908 73.1667V82.0833C338.908 84.1406 338.814 86.125 338.637 88.0417C338.471 89.9479 338.205 91.7396 337.846 93.4167C337.497 95.1146 337.033 96.6979 336.45 98.1667C335.877 99.625 335.148 100.974 334.262 102.208C332.747 104.615 330.523 106.521 327.596 107.938C324.929 109.271 321.596 109.938 317.596 109.938H257.617C255.575 109.938 253.643 109.432 251.825 108.417C250.002 107.391 248.559 105.99 247.492 104.208C246.783 102.974 246.294 101.599 246.033 100.083L246.158 9.0625C246.335 8.52083 246.538 7.96875 246.762 7.39583C246.981 6.8125 247.226 6.26042 247.492 5.72917C249.627 2.26042 252.7 0.390625 256.7 0.125V0H315.596C323.773 0 329.596 2.26563 333.054 6.79167C336.512 11.1562 338.242 17.7292 338.242 26.5208V33.9792ZM265.617 89.4167C265.617 89.6823 265.637 89.8646 265.679 89.9583C265.731 90.0417 265.762 90.0833 265.762 90.0833H312.137C314.804 90.0833 316.663 89.5104 317.721 88.3542C318.788 87.1198 319.325 84.9896 319.325 81.9583V72.8958C319.325 70.0521 318.747 67.9167 317.596 66.5C316.346 65.0833 314.033 64.375 310.658 64.375H284.804C283.648 64.375 282.627 63.9531 281.742 63.1042C280.851 62.2604 280.408 61.2188 280.408 59.9792V49.0417C280.408 47.7917 280.851 46.75 281.742 45.9167C282.627 45.0729 283.648 44.6458 284.804 44.6458H310.658C314.127 44.6458 316.398 44.0208 317.471 42.7708C318.622 41.5365 319.2 39.5833 319.2 36.9167V27.7083C319.2 24.7813 318.663 22.7396 317.596 21.5833C316.523 20.349 314.705 19.7292 312.137 19.7292H265.887C265.705 19.7292 265.617 19.9948 265.617 20.5208V89.4167Z" fill="white"/>
</svg>
