<?xml version="1.0" encoding="UTF-8"?>
<svg id="Layer_1" xmlns="http://www.w3.org/2000/svg" version="1.1" xmlns:xlink="http://www.w3.org/1999/xlink" viewBox="0 0 1000 1000">
  <!-- Generator: Adobe Illustrator 29.0.0, SVG Export Plug-In . SVG Version: 2.1.0 Build 186)  -->
  <defs>
    <style>
      .st0 {
        fill: url(#linear-gradient);
        stroke: #231f20;
        stroke-miterlimit: 10;
      }

      .st1 {
        fill: #fff;
      }
    </style>
    <linearGradient id="linear-gradient" x1="186.9" y1="225.4" x2="896.6" y2="842.7" gradientTransform="translate(0 1000) scale(1 -1)" gradientUnits="userSpaceOnUse">
      <stop offset="0" stop-color="#cc187f"/>
      <stop offset="1" stop-color="#45215a"/>
    </linearGradient>
  </defs>
  <circle class="st0" cx="501.7" cy="500.8" r="470.3"/>
  <path class="st1" d="M771.4,367c-10-52.7-39.2-98.8-82.2-129.9-89.7-64.6-217.2-47.1-284.3,39.1-28,36.1-43.1,81.8-42.3,128.8.4,28.8,6.9,57.4,18.6,83.7-11.7,5.3-13.3,21.2-2.9,28.7l76,54.8c5,3.6,10.9,4,15.9,2,5.4-2.2,9.7-7.1,10.4-13.8l9.4-93.3c1.3-12.8-11.7-22.2-23.4-16.9l-9.6,4.3c-18.5-42.2-14.2-91.8,13.5-127.4,40.1-51.3,116.3-61.4,170.1-22.6,53.7,38.7,67.7,113.1,31.9,169.3-12.3,19.3-6.9,45.2,12.5,57.5h.1c0,0,.1.1.1.1h0c19.4,12.3,44.9,6.5,57.2-12.9,28.7-45,38.9-98.8,28.9-151.5Z"/>
  <path class="st1" d="M528.3,426c-5.4,2.2-9.6,7.2-10.3,13.8l-9.6,94.9c-1.3,13,11.9,22.6,23.8,17.2l10.7-4.8c18.9,43,14.6,93.5-13.6,129.7-40,51.3-119.3,61.9-173.2,23-37.2-26.8-48.2-63.3-50.9-89.2-3.6-34.5,6-65.7,17.2-81.2l.4-.5c13.8-18.7,13.8-46-5.1-59.8,0,0-.3-.3-.4-.3-18.5-13.3-44.2-9.2-57.8,9.1-.2.2-.4.5-.7.9l-.4.6c-25.3,35.3-37.3,86.5-32,136.9,6.3,59.8,36.1,111.8,84.1,146.4,43,31,96.2,44.1,149.9,37,54.2-7.2,101.9-34.2,134.5-76h0s0,0,0,0v-.3c28-36.1,43.1-81.8,42.3-128.8-.5-28.8-6.9-57.4-18.7-83.8,10.9-5.6,12.1-20.9,2-28.2l-76-54.8c-5-3.7-11.2-3.9-16.2-1.8"/>
</svg>